<svg width="39" height="54" viewBox="0 0 39 54" fill="none" xmlns="http://www.w3.org/2000/svg">
<path d="M14.2143 47.8985V53.1704H8.89039V47.8985H0.904541V0.450836H30.186C32.304 0.450836 34.3352 1.28399 35.8328 2.76702C37.3305 4.25004 38.1718 6.26146 38.1718 8.35878V39.9905C38.1718 42.0878 37.3305 44.0993 35.8328 45.5823C34.3352 47.0653 32.304 47.8985 30.186 47.8985H14.2143ZM8.89039 5.7228H6.22844V42.6265H8.89039V5.7228ZM14.2143 5.7228V42.6265H30.186C30.892 42.6265 31.5691 42.3488 32.0683 41.8545C32.5675 41.3601 32.8479 40.6896 32.8479 39.9905V8.35878C32.8479 7.65967 32.5675 6.9892 32.0683 6.49486C31.5691 6.00051 30.892 5.7228 30.186 5.7228H14.2143ZM16.8762 10.9948H30.186V16.2667H16.8762V10.9948ZM16.8762 18.9027H30.186V24.1747H16.8762V18.9027Z" fill="#E5E5E5"/>
</svg>
