<svg width="15" height="16" viewBox="0 0 15 16" fill="none" xmlns="http://www.w3.org/2000/svg">
<path d="M7.34167 15.0947C3.36737 15.0947 0.145752 11.873 0.145752 7.89874C0.145752 3.92443 3.36737 0.70282 7.34167 0.70282C11.316 0.70282 14.5376 3.92443 14.5376 7.89874C14.5376 11.873 11.316 15.0947 7.34167 15.0947ZM7.34167 13.6555C8.86846 13.6555 10.3327 13.049 11.4123 11.9694C12.4919 10.8898 13.0984 9.42552 13.0984 7.89874C13.0984 6.37196 12.4919 4.90771 11.4123 3.82811C10.3327 2.74852 8.86846 2.142 7.34167 2.142C5.81489 2.142 4.35064 2.74852 3.27105 3.82811C2.19145 4.90771 1.58494 6.37196 1.58494 7.89874C1.58494 9.42552 2.19145 10.8898 3.27105 11.9694C4.35064 13.049 5.81489 13.6555 7.34167 13.6555ZM7.34167 11.4967C7.15083 11.4967 6.9678 11.4209 6.83285 11.2859C6.6979 11.151 6.62208 10.968 6.62208 10.7771C6.62208 10.5863 6.6979 10.4032 6.83285 10.2683C6.9678 10.1333 7.15083 10.0575 7.34167 10.0575C7.53252 10.0575 7.71555 10.1333 7.8505 10.2683C7.98545 10.4032 8.06127 10.5863 8.06127 10.7771C8.06127 10.968 7.98545 11.151 7.8505 11.2859C7.71555 11.4209 7.53252 11.4967 7.34167 11.4967ZM8.25987 9.18106C8.10949 9.29862 7.91856 9.35162 7.72909 9.32841C7.53962 9.3052 7.36713 9.20767 7.24957 9.05729C7.132 8.9069 7.079 8.71597 7.10221 8.5265C7.12542 8.33703 7.22295 8.16454 7.37334 8.04698L7.65686 7.82534C7.76907 7.73826 7.86299 7.62988 7.93323 7.50642C8.00348 7.38296 8.04867 7.24685 8.0662 7.1059C8.08374 6.96494 8.07329 6.82191 8.03544 6.68501C7.99759 6.5481 7.93309 6.42001 7.84564 6.30808C7.75819 6.19615 7.6495 6.10258 7.52582 6.03274C7.40213 5.96289 7.26588 5.91815 7.12487 5.90107C6.98386 5.88399 6.84086 5.89491 6.70408 5.9332C6.56729 5.9715 6.43941 6.03641 6.32777 6.12423L6.04425 6.34586C5.97012 6.40724 5.88442 6.45312 5.79224 6.48079C5.70006 6.50847 5.60327 6.51736 5.50759 6.50696C5.41191 6.49656 5.31928 6.46708 5.2352 6.42024C5.15112 6.37341 5.07729 6.31019 5.01807 6.23432C4.95886 6.15845 4.91546 6.07147 4.89046 5.97853C4.86546 5.88559 4.85935 5.78858 4.87251 5.69324C4.88566 5.5979 4.91781 5.50616 4.96704 5.42346C5.01628 5.34077 5.0816 5.26879 5.15915 5.21178L5.44195 4.99015C5.96831 4.57887 6.63649 4.39354 7.2995 4.47491C7.9625 4.55629 8.56603 4.89771 8.97731 5.42406C9.38858 5.95042 9.57392 6.6186 9.49255 7.28161C9.41117 7.94462 9.06975 8.54814 8.54339 8.95942L8.25987 9.18106Z" fill="#E5E5E5"/>
</svg>
